<?xml version="1.0" encoding="UTF-8"?>
<svg xmlns="http://www.w3.org/2000/svg" xmlns:xlink="http://www.w3.org/1999/xlink" width="2962.5pt" height="744.83pt" viewBox="0 0 2962.5 744.83" version="1.1">
<defs>
<clipPath id="clip1">
  <path d="M 0 0 L 616 0 L 616 744.828125 L 0 744.828125 Z M 0 0 "/>
</clipPath>
<clipPath id="clip2">
  <path d="M 2815 0 L 2962.5 0 L 2962.5 257 L 2815 257 Z M 2815 0 "/>
</clipPath>
</defs>
<g id="surface1">
<g clip-path="url(#clip1)" clip-rule="nonzero">
<path style=" stroke:none;fill-rule:nonzero;fill:rgb(39.199829%,42.399597%,43.899536%);fill-opacity:1;" d="M 437.070313 325.863281 C 438.363281 328.449219 438.363281 332.328125 438.363281 334.914063 C 438.363281 341.382813 435.777344 346.554688 430.605469 350.433594 C 426.726563 353.019531 415.085938 360.777344 400.863281 363.363281 C 394.394531 364.65625 389.226563 365.949219 384.050781 365.949219 C 382.757813 365.949219 381.464844 367.242188 380.171875 367.242188 C 381.464844 368.535156 381.464844 369.828125 381.464844 371.121094 C 381.464844 375.003906 378.878906 377.589844 375 377.589844 C 371.121094 377.589844 368.535156 375.003906 368.535156 371.121094 C 368.535156 367.242188 369.828125 364.65625 372.414063 362.070313 C 373.707031 360.777344 375 360.777344 376.292969 360.777344 C 377.585938 360.777344 380.171875 359.484375 381.464844 359.484375 C 386.640625 358.191406 391.8125 356.898438 399.570313 355.605469 C 412.5 353.019531 422.84375 347.847656 425.433594 345.261719 C 429.3125 342.675781 430.605469 340.089844 430.605469 336.210938 C 430.605469 334.914063 430.605469 332.328125 429.3125 329.742188 C 428.019531 328.449219 426.726563 325.863281 424.140625 325.863281 C 421.550781 324.570313 417.671875 324.570313 415.085938 324.570313 C 413.792969 324.570313 413.792969 324.570313 412.5 324.570313 C 407.328125 324.570313 399.570313 328.449219 393.105469 332.328125 C 393.105469 332.328125 358.191406 368.535156 354.3125 372.414063 C 350.433594 377.589844 341.378906 389.226563 324.570313 390.519531 C 325.863281 390.519531 327.15625 391.8125 327.15625 393.105469 C 327.15625 394.398438 325.863281 396.984375 323.277344 396.984375 L 321.984375 396.984375 L 327.15625 408.621094 L 343.964844 408.621094 C 345.257813 408.621094 347.84375 409.914063 347.84375 412.503906 C 347.84375 413.796875 346.550781 416.382813 343.964844 416.382813 L 274.136719 416.382813 C 272.84375 416.382813 270.257813 415.089844 270.257813 412.503906 C 270.257813 411.210938 271.550781 408.621094 274.136719 408.621094 L 290.949219 408.621094 L 296.121094 396.984375 L 294.828125 396.984375 C 293.535156 396.984375 290.949219 395.691406 290.949219 393.105469 C 290.949219 391.8125 292.242188 390.519531 293.535156 390.519531 C 292.242188 390.519531 292.242188 390.519531 292.242188 390.519531 C 292.242188 390.519531 270.257813 384.054688 257.328125 365.949219 C 253.449219 360.777344 240.519531 342.675781 228.878906 340.089844 C 221.121094 338.796875 188.792969 334.914063 188.792969 334.914063 C 186.207031 334.914063 184.914063 332.328125 184.914063 329.742188 C 184.914063 327.15625 187.5 325.863281 190.085938 325.863281 C 190.085938 325.863281 196.550781 325.863281 203.019531 327.15625 C 201.726563 327.15625 200.433594 325.863281 201.726563 323.277344 C 201.726563 321.984375 203.019531 320.691406 204.3125 320.691406 C 200.433594 319.398438 196.550781 312.933594 196.550781 309.054688 C 196.550781 305.175781 197.84375 300.003906 197.84375 300.003906 C 197.84375 300.003906 199.136719 303.882813 201.726563 306.46875 C 204.3125 310.347656 208.1875 310.347656 208.1875 310.347656 C 208.1875 310.347656 206.894531 309.054688 206.894531 305.175781 C 205.605469 298.710938 213.363281 292.242188 214.65625 293.535156 C 215.949219 303.882813 221.121094 307.761719 221.121094 307.761719 C 221.121094 307.761719 222.414063 307.761719 225 303.882813 C 227.585938 300.003906 226.292969 294.828125 226.292969 294.828125 C 226.292969 294.828125 232.757813 300.003906 232.757813 305.175781 C 232.757813 311.640625 232.757813 311.640625 231.464844 311.640625 C 231.464844 312.933594 236.636719 310.347656 236.636719 305.175781 C 236.636719 303.882813 239.226563 312.933594 236.636719 315.519531 C 234.050781 319.398438 231.464844 321.984375 228.878906 321.984375 C 230.171875 323.277344 230.171875 323.277344 230.171875 324.570313 C 230.171875 325.863281 228.878906 327.15625 226.292969 327.15625 C 227.585938 327.15625 228.878906 327.15625 230.171875 327.15625 C 235.34375 328.449219 246.984375 328.449219 257.328125 329.742188 L 265.085938 329.742188 C 263.792969 329.742188 262.5 328.449219 262.5 327.15625 C 262.5 324.570313 263.792969 323.277344 266.378906 323.277344 L 290.949219 323.277344 L 296.121094 315.519531 C 294.828125 315.519531 294.828125 314.226563 294.828125 312.933594 C 294.828125 311.640625 296.121094 309.054688 298.707031 309.054688 L 306.464844 309.054688 C 305.171875 307.761719 303.878906 306.46875 303.878906 303.882813 C 303.878906 301.296875 306.464844 298.710938 309.050781 298.710938 C 311.640625 298.710938 314.226563 301.296875 314.226563 303.882813 C 314.226563 306.46875 312.933594 307.761719 311.636719 309.054688 L 320.691406 309.054688 C 321.984375 309.054688 324.570313 310.347656 324.570313 312.933594 C 324.570313 314.226563 323.277344 315.519531 323.277344 315.519531 L 327.15625 323.277344 L 353.019531 323.277344 C 354.3125 323.277344 356.894531 324.570313 356.894531 327.15625 C 356.894531 328.449219 355.605469 329.742188 354.3125 329.742188 C 363.363281 329.742188 369.828125 329.742188 371.121094 329.742188 C 377.585938 329.742188 382.757813 327.15625 386.636719 324.570313 C 387.933594 323.277344 390.519531 321.984375 391.8125 320.691406 C 398.277344 316.8125 406.035156 312.933594 413.792969 311.640625 C 415.085938 311.640625 415.085938 311.640625 416.378906 311.640625 C 420.257813 311.640625 424.136719 311.640625 428.019531 312.933594 C 430.605469 318.105469 434.484375 320.691406 437.070313 325.863281 M 606.464844 412.503906 C 603.878906 413.796875 601.292969 415.089844 598.707031 416.382813 C 596.121094 417.675781 593.535156 420.261719 592.242188 421.554688 L 590.949219 422.847656 L 587.070313 428.019531 L 583.191406 422.847656 C 583.191406 422.847656 572.84375 409.914063 552.15625 409.914063 C 541.8125 409.914063 534.050781 413.796875 527.585938 416.382813 C 525 417.675781 522.414063 420.261719 521.121094 421.554688 C 519.828125 421.554688 519.828125 422.847656 519.828125 422.847656 L 515.949219 428.019531 L 512.070313 422.847656 C 512.070313 422.847656 501.726563 409.914063 481.035156 409.914063 C 470.691406 409.914063 462.933594 413.796875 457.757813 416.382813 C 455.171875 417.675781 453.878906 420.261719 452.585938 420.261719 L 451.292969 421.554688 L 447.414063 426.726563 L 443.535156 421.554688 C 443.535156 421.554688 433.191406 408.621094 412.5 408.621094 C 400.863281 408.621094 394.398438 409.914063 390.519531 411.210938 C 387.933594 412.503906 387.933594 412.503906 386.640625 412.503906 C 385.34375 413.796875 382.757813 421.554688 382.757813 438.363281 C 382.757813 448.710938 386.640625 456.46875 389.226563 461.640625 C 390.519531 464.226563 393.105469 466.8125 394.398438 468.105469 C 394.398438 469.398438 395.691406 469.398438 395.691406 469.398438 L 400.863281 473.277344 L 395.691406 477.15625 C 395.691406 477.15625 382.757813 487.503906 382.757813 508.191406 C 382.757813 518.535156 386.640625 526.296875 389.226563 531.46875 C 390.519531 534.054688 393.105469 536.640625 394.398438 537.933594 L 395.691406 539.226563 L 400.863281 543.105469 L 395.691406 546.984375 C 394.398438 546.984375 382.757813 558.621094 382.757813 579.3125 C 382.757813 589.65625 386.640625 597.414063 389.226563 602.589844 C 390.519531 605.175781 393.105469 607.761719 394.398438 609.054688 L 395.691406 610.347656 L 400.863281 614.226563 L 395.691406 618.105469 C 395.691406 618.105469 382.757813 629.742188 382.757813 650.433594 C 382.757813 660.777344 386.640625 668.535156 389.226563 673.707031 C 390.519531 676.292969 393.105469 678.882813 394.398438 680.175781 L 395.691406 681.46875 L 400.863281 685.347656 L 395.691406 689.226563 C 395.691406 689.226563 387.933594 696.984375 384.050781 708.621094 C 347.847656 725.433594 319.398438 731.898438 311.640625 731.898438 C 305.171875 731.898438 280.605469 726.726563 248.277344 712.5 C 245.6875 696.984375 236.640625 689.226563 235.34375 689.226563 L 230.171875 685.347656 L 235.34375 681.46875 L 236.640625 680.175781 C 237.933594 678.882813 239.226563 677.585938 241.8125 673.707031 C 245.6875 668.535156 248.277344 660.777344 248.277344 650.433594 C 248.277344 629.742188 235.34375 619.398438 235.34375 618.105469 L 230.171875 614.226563 L 235.34375 610.347656 L 236.640625 609.054688 C 237.933594 607.761719 239.226563 606.46875 241.8125 602.589844 C 245.6875 597.414063 248.277344 589.65625 248.277344 579.3125 C 248.277344 558.621094 235.34375 548.277344 235.34375 546.984375 L 230.171875 543.105469 L 235.34375 539.226563 L 236.640625 537.933594 C 237.933594 536.640625 239.226563 535.347656 241.8125 531.46875 C 245.6875 526.296875 248.277344 518.535156 248.277344 508.191406 C 248.277344 487.503906 235.34375 477.15625 235.34375 477.15625 L 230.171875 473.277344 L 235.34375 469.398438 L 236.640625 468.105469 C 237.933594 466.8125 239.226563 465.519531 241.8125 461.640625 C 245.6875 456.46875 248.277344 448.710938 248.277344 438.363281 C 248.277344 420.261719 244.394531 413.796875 244.394531 412.503906 C 243.105469 412.503906 243.105469 411.210938 240.519531 411.210938 C 236.640625 409.914063 230.171875 408.621094 218.535156 408.621094 C 197.84375 408.621094 187.5 421.554688 187.5 421.554688 L 183.621094 426.726563 L 179.742188 421.554688 L 178.449219 420.261719 C 177.15625 418.96875 175.863281 417.675781 173.277344 416.382813 C 168.105469 412.503906 160.34375 409.914063 150 409.914063 C 129.3125 409.914063 118.964844 422.847656 118.964844 422.847656 L 115.085938 428.019531 L 103.449219 422.847656 L 102.15625 421.554688 C 100.863281 420.261719 98.277344 418.96875 95.691406 416.382813 C 90.519531 412.503906 82.757813 409.914063 71.121094 409.914063 C 50.429688 409.914063 40.085938 422.847656 40.085938 422.847656 L 36.207031 428.019531 L 32.328125 422.847656 L 31.035156 421.554688 C 29.742188 420.261719 27.15625 418.96875 24.570313 416.382813 C 20.691406 413.796875 15.519531 411.210938 9.050781 411.210938 L 9.050781 280.605469 C 15.519531 279.3125 20.691406 276.726563 24.570313 274.140625 C 27.15625 272.847656 29.742188 270.261719 31.035156 270.261719 C 32.328125 270.261719 32.328125 268.96875 32.328125 268.96875 L 36.207031 263.796875 L 40.085938 268.96875 C 40.085938 268.96875 50.429688 281.898438 71.121094 281.898438 C 81.464844 281.898438 89.222656 278.019531 95.691406 275.433594 C 98.277344 274.140625 100.863281 271.554688 102.15625 271.554688 L 103.449219 270.261719 L 107.328125 265.089844 L 111.207031 270.261719 C 111.207031 270.261719 121.550781 283.191406 142.242188 283.191406 C 152.585938 283.191406 160.34375 279.3125 165.519531 276.726563 C 168.105469 275.433594 169.394531 272.847656 170.6875 271.554688 L 171.984375 270.261719 L 175.863281 265.089844 L 179.742188 270.261719 C 179.742188 270.261719 190.085938 283.191406 210.777344 283.191406 C 222.414063 283.191406 228.878906 281.898438 232.757813 280.605469 C 235.34375 279.3125 235.34375 279.3125 236.636719 279.3125 C 237.933594 278.019531 240.519531 270.261719 240.519531 253.449219 C 240.519531 243.105469 236.636719 235.347656 234.050781 230.175781 C 232.757813 227.589844 230.171875 225.003906 228.878906 225.003906 L 227.585938 223.710938 L 226.292969 215.949219 L 231.464844 212.070313 C 231.464844 212.070313 244.394531 201.726563 244.394531 181.035156 C 244.394531 170.691406 240.519531 162.933594 237.933594 157.761719 C 236.636719 155.175781 234.050781 152.589844 232.757813 151.296875 L 231.464844 150.003906 L 226.292969 146.121094 L 231.464844 142.242188 C 231.464844 142.242188 244.394531 130.605469 244.394531 111.210938 C 244.394531 100.863281 240.519531 93.105469 237.933594 87.933594 C 236.636719 85.347656 234.050781 82.761719 232.757813 81.46875 C 232.757813 80.175781 231.464844 80.175781 231.464844 80.175781 L 226.292969 73.710938 L 232.757813 68.535156 C 232.757813 68.535156 245.6875 56.898438 245.6875 36.210938 C 245.6875 25.863281 241.8125 18.105469 239.226563 12.933594 C 237.933594 11.640625 236.636719 10.347656 236.636719 9.054688 L 387.933594 9.054688 C 386.640625 10.347656 386.640625 11.640625 385.34375 12.933594 C 381.464844 18.105469 378.878906 25.863281 378.878906 36.210938 C 378.878906 56.898438 391.8125 67.242188 391.8125 68.535156 L 396.984375 73.710938 L 391.8125 77.589844 L 390.519531 78.882813 C 389.226563 80.175781 387.933594 81.46875 385.34375 85.347656 C 381.464844 90.519531 378.878906 98.277344 378.878906 108.621094 C 378.878906 129.3125 391.8125 139.65625 391.8125 139.65625 L 396.984375 143.535156 L 391.8125 147.414063 L 390.519531 148.710938 C 389.226563 150.003906 387.933594 151.296875 385.34375 155.175781 C 381.464844 160.347656 378.878906 168.105469 378.878906 178.449219 C 378.878906 199.140625 391.8125 209.484375 391.8125 209.484375 L 396.984375 213.363281 L 391.8125 217.242188 L 390.519531 218.535156 C 389.226563 219.828125 387.933594 221.121094 385.34375 223.710938 C 381.464844 228.882813 378.878906 236.640625 378.878906 246.984375 C 378.878906 265.089844 382.757813 271.554688 382.757813 272.847656 C 384.050781 272.847656 384.050781 274.140625 386.640625 274.140625 C 390.519531 275.433594 398.277344 276.726563 408.621094 276.726563 C 429.3125 276.726563 439.65625 263.796875 439.65625 263.796875 L 443.535156 258.621094 L 447.414063 263.796875 L 448.707031 265.089844 C 450 266.382813 451.292969 267.675781 453.878906 270.261719 C 459.050781 274.140625 466.8125 276.726563 477.15625 276.726563 C 497.84375 276.726563 508.191406 263.796875 508.191406 263.796875 L 512.070313 258.621094 L 515.949219 263.796875 L 517.242188 265.089844 C 518.535156 266.382813 521.121094 267.675781 523.707031 268.96875 C 528.878906 272.847656 536.636719 275.433594 548.277344 275.433594 C 568.964844 275.433594 579.3125 262.503906 579.3125 262.503906 L 583.191406 257.328125 L 587.070313 262.503906 L 588.363281 263.796875 C 589.65625 265.089844 592.242188 266.382813 594.828125 267.675781 C 597.414063 268.96875 600 270.261719 602.585938 271.554688 L 602.585938 412.503906 Z M 550.863281 465.519531 C 549.570313 468.105469 548.277344 469.398438 544.394531 471.984375 L 543.105469 473.277344 C 539.226563 475.863281 534.050781 477.15625 534.050781 477.15625 L 537.933594 477.15625 C 540.519531 477.15625 543.105469 475.863281 545.691406 475.863281 C 545.691406 475.863281 545.691406 477.15625 544.394531 477.15625 C 544.394531 477.15625 543.105469 478.449219 540.519531 479.742188 C 539.226563 481.035156 537.933594 481.035156 535.34375 482.328125 C 531.464844 484.914063 530.171875 484.914063 530.171875 484.914063 C 530.171875 484.914063 530.171875 484.914063 528.878906 484.914063 C 528.878906 484.914063 528.878906 484.914063 528.878906 486.210938 C 528.878906 486.210938 530.171875 486.210938 531.464844 486.210938 C 532.757813 486.210938 536.640625 484.914063 537.933594 484.914063 L 537.933594 486.210938 C 537.933594 487.503906 536.640625 490.089844 534.050781 491.382813 C 532.757813 492.675781 526.292969 493.96875 525 493.96875 C 525 493.96875 528.878906 493.96875 531.464844 495.261719 C 531.464844 495.261719 531.464844 495.261719 532.757813 496.554688 C 532.757813 497.847656 532.757813 499.140625 531.464844 500.433594 C 531.464844 500.433594 527.585938 503.019531 525 503.019531 C 522.414063 503.019531 521.121094 503.019531 521.121094 503.019531 C 521.121094 503.019531 526.292969 504.3125 527.585938 505.605469 C 527.585938 505.605469 527.585938 505.605469 527.585938 506.898438 C 527.585938 508.191406 526.292969 508.191406 526.292969 509.484375 L 525 510.777344 C 525 510.777344 523.707031 510.777344 522.414063 509.484375 C 519.828125 508.191406 517.242188 508.191406 517.242188 508.191406 C 517.242188 508.191406 517.242188 509.484375 518.535156 510.777344 L 519.828125 512.070313 C 521.121094 513.363281 522.414063 514.65625 522.414063 514.65625 C 522.414063 515.949219 522.414063 517.242188 519.828125 519.828125 C 518.535156 526.296875 518.535156 526.296875 518.535156 526.296875 L 518.535156 525.003906 C 518.535156 523.710938 518.535156 522.414063 517.242188 521.121094 C 515.949219 518.535156 513.363281 515.949219 513.363281 515.949219 C 514.65625 522.414063 517.242188 528.882813 517.242188 528.882813 C 517.242188 530.175781 514.65625 531.46875 514.65625 531.46875 C 514.65625 531.46875 514.65625 531.46875 514.65625 530.175781 L 514.65625 528.882813 C 513.363281 527.589844 512.070313 526.296875 512.070313 526.296875 C 512.070313 526.296875 512.070313 528.882813 513.363281 531.46875 C 513.363281 532.761719 514.65625 532.761719 513.363281 534.054688 C 513.363281 534.054688 513.363281 534.054688 512.070313 535.347656 C 510.777344 536.640625 508.191406 535.347656 506.894531 535.347656 C 505.605469 534.054688 505.605469 534.054688 506.894531 532.761719 C 508.191406 530.175781 506.894531 530.175781 506.894531 528.882813 C 506.894531 528.882813 506.894531 528.882813 505.605469 528.882813 C 504.3125 528.882813 504.3125 530.175781 504.3125 530.175781 C 504.3125 531.46875 505.605469 536.640625 504.3125 537.933594 C 504.3125 539.226563 503.019531 539.226563 501.726563 539.226563 L 500.433594 539.226563 C 499.140625 539.226563 497.84375 539.226563 497.84375 539.226563 C 497.84375 537.933594 497.84375 527.589844 497.84375 526.296875 C 497.84375 523.710938 497.84375 522.414063 499.140625 522.414063 C 500.433594 522.414063 505.605469 518.535156 509.484375 510.777344 C 510.777344 509.484375 512.070313 506.898438 513.363281 504.3125 C 517.242188 496.554688 525 482.328125 528.878906 477.15625 C 530.171875 478.449219 531.464844 479.742188 534.050781 478.449219 C 535.34375 478.449219 536.640625 475.863281 536.640625 474.570313 L 536.640625 471.984375 C 543.105469 469.398438 552.15625 462.933594 554.742188 461.640625 C 554.742188 461.640625 554.742188 461.640625 556.035156 461.640625 C 552.15625 459.054688 550.863281 462.933594 550.863281 465.519531 M 528.878906 592.242188 C 528.878906 592.242188 527.585938 593.535156 526.292969 593.535156 L 512.070313 589.65625 C 510.777344 589.65625 509.484375 588.363281 509.484375 587.070313 C 509.484375 585.777344 509.484375 584.484375 510.777344 584.484375 L 513.363281 583.191406 L 493.964844 566.382813 C 492.671875 565.089844 492.671875 565.089844 492.671875 563.796875 C 492.671875 562.503906 493.964844 562.503906 495.257813 561.210938 L 505.605469 558.621094 L 492.671875 545.691406 C 492.671875 544.398438 492.671875 541.8125 492.671875 540.519531 L 492.671875 539.226563 L 493.964844 539.226563 C 493.964844 539.226563 495.257813 539.226563 495.257813 540.519531 L 513.363281 558.621094 C 514.65625 559.914063 514.65625 559.914063 514.65625 561.210938 C 514.65625 562.503906 513.363281 562.503906 512.070313 563.796875 L 503.019531 565.089844 L 517.242188 578.019531 L 518.535156 574.140625 C 518.535156 572.847656 519.828125 571.554688 521.121094 571.554688 C 522.414063 571.554688 523.707031 572.847656 523.707031 572.847656 L 528.878906 587.070313 C 530.171875 589.65625 530.171875 590.949219 528.878906 592.242188 M 495.257813 606.46875 C 495.257813 605.175781 493.964844 603.882813 492.671875 602.589844 C 490.085938 600.003906 487.5 600.003906 487.5 600.003906 C 487.5 600.003906 488.792969 601.296875 488.792969 603.882813 C 488.792969 607.761719 486.207031 612.933594 484.914063 612.933594 C 482.328125 605.175781 478.449219 602.589844 478.449219 602.589844 C 478.449219 602.589844 477.15625 603.882813 475.863281 606.46875 C 474.570313 609.054688 475.863281 611.640625 475.863281 612.933594 C 474.570313 611.640625 471.984375 609.054688 470.691406 606.46875 C 470.691406 602.589844 470.691406 601.296875 470.691406 601.296875 C 469.394531 601.296875 466.8125 603.882813 466.8125 606.46875 C 466.8125 606.46875 465.519531 605.175781 465.519531 603.882813 C 465.519531 602.589844 464.226563 601.296875 465.519531 598.710938 C 466.8125 596.121094 469.394531 593.535156 470.691406 593.535156 L 491.378906 593.535156 C 493.964844 594.828125 496.550781 598.710938 497.84375 601.296875 C 495.257813 602.589844 495.257813 605.175781 495.257813 606.46875 M 461.640625 566.382813 L 442.242188 583.191406 L 444.828125 584.484375 C 446.121094 584.484375 446.121094 585.777344 446.121094 587.070313 C 446.121094 588.363281 444.828125 589.65625 443.535156 589.65625 L 429.3125 593.535156 C 428.019531 593.535156 428.019531 593.535156 426.726563 592.242188 C 426.726563 590.949219 426.726563 589.65625 426.726563 589.65625 L 431.898438 575.433594 C 431.898438 574.140625 433.191406 574.140625 434.484375 574.140625 C 435.777344 574.140625 437.070313 575.433594 437.070313 576.726563 L 438.363281 580.605469 L 452.585938 567.675781 L 442.242188 565.089844 C 440.949219 565.089844 440.949219 563.796875 439.65625 562.503906 C 439.65625 561.210938 439.65625 559.914063 440.949219 559.914063 L 459.050781 541.8125 C 459.050781 541.8125 460.34375 541.8125 460.34375 540.519531 L 461.640625 540.519531 L 461.640625 541.8125 C 461.640625 543.105469 461.640625 545.691406 461.640625 546.984375 L 448.707031 559.914063 L 459.050781 562.503906 C 460.34375 562.503906 461.640625 563.796875 461.640625 565.089844 C 462.933594 563.796875 461.640625 565.089844 461.640625 566.382813 M 468.105469 580.605469 L 490.085938 580.605469 C 492.671875 580.605469 495.257813 583.191406 495.257813 585.777344 C 495.257813 588.363281 492.671875 590.949219 490.085938 590.949219 L 468.105469 590.949219 C 465.519531 590.949219 462.933594 588.363281 462.933594 585.777344 C 462.933594 583.191406 465.519531 580.605469 468.105469 580.605469 M 462.933594 473.277344 C 462.933594 470.691406 465.519531 468.105469 468.105469 468.105469 L 490.085938 468.105469 C 492.671875 468.105469 495.257813 470.691406 495.257813 473.277344 C 495.257813 475.863281 492.671875 478.449219 490.085938 478.449219 L 468.105469 478.449219 C 465.519531 477.15625 462.933594 475.863281 462.933594 473.277344 M 468.105469 481.035156 L 487.5 481.035156 C 488.792969 487.503906 490.085938 508.191406 490.085938 528.882813 C 490.085938 550.863281 487.5 575.433594 486.207031 578.019531 L 486.207031 579.3125 L 466.8125 579.3125 L 466.8125 578.019531 C 466.8125 578.019531 462.933594 553.449219 462.933594 528.882813 C 465.519531 506.898438 468.105469 486.210938 468.105469 481.035156 M 514.65625 465.519531 C 513.363281 465.519531 512.070313 464.226563 512.070313 462.933594 C 512.070313 461.640625 512.070313 460.347656 513.363281 460.347656 L 525 451.296875 C 526.292969 451.296875 526.292969 450.003906 527.585938 451.296875 C 528.878906 451.296875 528.878906 452.589844 528.878906 452.589844 L 528.878906 468.105469 C 528.878906 469.398438 527.585938 470.691406 527.585938 470.691406 C 526.292969 470.691406 525 470.691406 525 469.398438 L 523.707031 466.8125 L 512.070313 488.796875 C 512.070313 490.089844 510.777344 490.089844 509.484375 490.089844 C 508.191406 490.089844 506.894531 490.089844 506.894531 488.796875 L 501.726563 478.449219 L 491.378906 497.847656 L 491.378906 495.261719 C 491.378906 493.96875 491.378906 491.382813 491.378906 490.089844 L 491.378906 487.503906 L 500.433594 471.984375 C 500.433594 470.691406 501.726563 470.691406 503.019531 470.691406 C 504.3125 470.691406 505.605469 470.691406 505.605469 471.984375 L 510.777344 481.035156 L 519.828125 464.226563 Z M 470.691406 457.761719 C 470.691406 457.761719 469.398438 456.46875 469.398438 453.882813 C 469.398438 450.003906 471.984375 444.828125 473.277344 444.828125 C 475.863281 452.589844 479.742188 455.175781 479.742188 455.175781 C 479.742188 455.175781 481.035156 453.882813 482.328125 451.296875 C 483.621094 448.710938 482.328125 446.121094 482.328125 444.828125 C 483.621094 446.121094 486.207031 448.710938 487.5 451.296875 C 487.5 455.175781 487.5 456.46875 487.5 456.46875 C 488.792969 456.46875 491.378906 453.882813 491.378906 451.296875 C 491.378906 451.296875 492.671875 452.589844 492.671875 453.882813 C 492.671875 455.175781 493.964844 456.46875 492.671875 459.054688 C 491.378906 461.640625 488.792969 464.226563 487.5 464.226563 L 466.8125 464.226563 C 464.226563 462.933594 461.640625 459.054688 460.34375 456.46875 C 460.34375 455.175781 460.34375 452.589844 460.34375 451.296875 C 460.34375 452.589844 461.640625 453.882813 462.933594 455.175781 C 466.8125 457.761719 469.394531 457.761719 470.691406 457.761719 M 446.121094 482.328125 L 451.292969 473.277344 C 451.292969 471.984375 452.585938 471.984375 453.878906 471.984375 C 455.171875 471.984375 456.464844 471.984375 456.464844 473.277344 L 465.519531 487.503906 L 465.519531 490.089844 C 465.519531 491.382813 465.519531 493.96875 465.519531 495.261719 L 465.519531 497.847656 L 455.171875 479.742188 L 450 490.089844 C 450 491.382813 448.707031 491.382813 447.414063 491.382813 C 446.121094 491.382813 444.828125 491.382813 444.828125 490.089844 L 433.191406 468.105469 L 431.894531 470.691406 C 430.605469 471.984375 429.3125 471.984375 429.3125 471.984375 C 428.019531 471.984375 428.019531 470.691406 428.019531 469.398438 L 428.019531 453.882813 C 428.019531 452.589844 429.3125 452.589844 429.3125 452.589844 C 430.605469 452.589844 431.894531 452.589844 431.894531 452.589844 L 443.535156 461.640625 C 444.828125 462.933594 444.828125 462.933594 444.828125 464.226563 C 444.828125 465.519531 443.535156 466.8125 442.242188 466.8125 L 438.363281 466.8125 Z M 424.140625 500.433594 C 424.140625 500.433594 422.84375 497.847656 422.84375 496.554688 C 422.84375 496.554688 422.84375 496.554688 424.140625 495.261719 C 426.726563 493.96875 430.605469 493.96875 430.605469 493.96875 C 428.019531 493.96875 422.84375 492.675781 421.550781 491.382813 C 420.257813 490.089844 418.964844 487.503906 417.671875 486.210938 L 417.671875 484.914063 C 418.964844 484.914063 424.140625 486.210938 425.433594 486.210938 C 426.726563 486.210938 428.019531 486.210938 428.019531 486.210938 C 428.019531 486.210938 428.019531 486.210938 428.019531 484.914063 C 428.019531 484.914063 426.726563 484.914063 422.84375 482.328125 C 420.257813 481.035156 418.964844 479.742188 417.671875 479.742188 C 416.378906 478.449219 415.085938 478.449219 413.792969 477.15625 C 413.792969 477.15625 413.792969 475.863281 412.5 475.863281 C 413.792969 475.863281 417.671875 477.15625 420.257813 477.15625 L 424.136719 477.15625 C 424.136719 477.15625 418.964844 475.863281 415.085938 473.277344 L 413.792969 471.984375 C 411.207031 469.398438 408.621094 468.105469 407.328125 465.519531 C 407.328125 464.226563 406.035156 460.347656 406.035156 459.054688 C 406.035156 459.054688 406.035156 459.054688 407.328125 459.054688 C 409.914063 460.347656 418.964844 465.519531 425.433594 469.398438 L 425.433594 471.984375 C 425.433594 474.570313 426.726563 475.863281 428.019531 475.863281 C 429.3125 475.863281 431.894531 475.863281 433.191406 474.570313 C 437.070313 481.035156 444.828125 493.96875 448.707031 501.726563 C 450 504.3125 451.292969 506.898438 452.585938 508.191406 C 456.464844 514.65625 461.640625 518.535156 462.933594 519.828125 C 462.933594 519.828125 464.226563 521.121094 464.226563 523.710938 C 464.226563 526.296875 464.226563 535.347656 464.226563 536.640625 C 464.226563 536.640625 462.933594 536.640625 461.640625 536.640625 L 460.34375 536.640625 C 459.050781 536.640625 457.757813 536.640625 457.757813 535.347656 C 457.757813 534.054688 457.757813 530.175781 457.757813 527.589844 L 456.464844 526.296875 C 456.464844 526.296875 456.464844 526.296875 455.171875 526.296875 C 455.171875 527.589844 453.878906 528.882813 455.171875 530.175781 C 455.171875 531.46875 455.171875 531.46875 455.171875 532.761719 C 453.878906 534.054688 452.585938 534.054688 450 532.761719 C 450 532.761719 448.707031 532.761719 448.707031 531.46875 C 448.707031 531.46875 448.707031 530.175781 448.707031 528.882813 C 450 527.589844 450 523.710938 450 523.710938 C 450 523.710938 447.414063 525.003906 447.414063 526.296875 L 447.414063 528.882813 C 446.121094 528.882813 444.828125 527.589844 444.828125 526.296875 C 444.828125 525.003906 446.121094 518.535156 448.707031 513.363281 C 448.707031 513.363281 448.707031 513.363281 447.414063 513.363281 C 447.414063 513.363281 444.828125 515.949219 443.535156 518.535156 C 443.535156 519.828125 442.242188 521.121094 442.242188 522.414063 L 442.242188 523.710938 C 442.242188 523.710938 440.949219 523.710938 439.65625 521.121094 C 437.070313 518.535156 437.070313 515.949219 437.070313 515.949219 C 437.070313 514.65625 438.363281 514.65625 439.65625 513.363281 L 440.949219 512.070313 C 442.242188 510.777344 442.242188 509.484375 442.242188 509.484375 C 442.242188 509.484375 439.65625 509.484375 437.070313 510.777344 C 435.777344 510.777344 435.777344 512.070313 434.484375 512.070313 C 434.484375 512.070313 434.484375 510.777344 433.191406 510.777344 C 433.191406 509.484375 431.894531 509.484375 431.894531 508.191406 L 431.894531 506.898438 C 433.191406 505.605469 438.363281 504.3125 438.363281 504.3125 C 438.363281 504.3125 437.070313 504.3125 434.484375 504.3125 C 428.019531 503.019531 424.140625 500.433594 424.140625 500.433594 M 42.671875 99.570313 C 50.429688 106.035156 72.414063 122.847656 96.984375 124.140625 L 98.277344 124.140625 L 98.277344 75.003906 L 73.707031 75.003906 L 73.707031 51.726563 L 98.277344 51.726563 L 98.277344 27.15625 L 121.550781 27.15625 L 121.550781 50.433594 L 144.828125 50.433594 L 144.828125 73.710938 L 121.550781 73.710938 L 121.550781 122.847656 L 122.84375 122.847656 C 146.121094 122.847656 168.105469 106.035156 175.863281 98.277344 L 175.863281 164.226563 C 168.105469 157.761719 146.121094 140.949219 122.84375 140.949219 L 121.550781 140.949219 L 121.550781 192.675781 L 146.121094 192.675781 L 146.121094 215.949219 L 121.550781 215.949219 L 121.550781 244.398438 L 98.277344 244.398438 L 98.277344 215.949219 L 73.707031 215.949219 L 73.707031 192.675781 L 96.984375 192.675781 L 96.984375 140.949219 L 95.691406 140.949219 C 72.414063 140.949219 49.136719 157.761719 41.378906 164.226563 L 41.378906 99.570313 Z M 396.984375 0.00390625 L 0 0.00390625 L 0 417.675781 C 0 453.882813 14.222656 488.796875 29.742188 521.121094 C 54.308594 572.847656 106.035156 638.796875 164.226563 681.46875 C 168.105469 684.054688 171.984375 686.640625 175.863281 689.226563 C 177.15625 690.519531 178.449219 690.519531 179.742188 691.8125 C 182.328125 693.105469 184.914063 695.691406 187.5 696.984375 C 188.792969 698.277344 190.085938 698.277344 192.671875 699.570313 C 195.257813 700.863281 196.550781 702.15625 199.136719 703.449219 C 200.433594 704.742188 203.019531 704.742188 204.3125 706.035156 C 206.894531 707.328125 208.1875 708.621094 210.777344 709.914063 C 212.070313 711.207031 214.65625 711.207031 215.949219 712.5 C 218.535156 713.796875 219.828125 715.089844 222.414063 715.089844 C 223.707031 716.382813 226.292969 716.382813 227.585938 717.675781 C 230.171875 718.96875 231.464844 718.96875 234.050781 720.261719 C 235.34375 721.554688 236.636719 721.554688 239.226563 722.847656 C 241.8125 724.140625 245.6875 725.433594 248.277344 726.726563 C 280.605469 739.65625 303.878906 744.828125 311.640625 744.828125 C 319.394531 744.828125 346.550781 738.363281 381.464844 722.847656 C 384.050781 721.554688 386.640625 720.261719 389.226563 718.96875 C 386.640625 720.261719 387.933594 720.261719 387.933594 720.261719 C 390.519531 718.96875 393.105469 717.675781 394.394531 716.382813 C 395.691406 716.382813 396.984375 715.089844 398.277344 715.089844 C 400.863281 713.796875 403.449219 712.5 406.035156 711.207031 C 408.621094 709.914063 411.207031 708.621094 413.792969 707.328125 C 415.085938 706.035156 416.378906 706.035156 417.671875 704.742188 C 420.257813 703.449219 421.550781 702.15625 424.136719 700.863281 C 425.433594 699.570313 426.726563 699.570313 428.019531 698.277344 C 430.605469 696.984375 433.191406 695.691406 435.777344 693.105469 C 437.070313 691.8125 438.363281 691.8125 439.65625 690.519531 C 443.535156 687.933594 447.414063 685.347656 451.292969 682.761719 C 509.484375 640.089844 561.207031 574.140625 585.777344 522.414063 C 601.292969 488.796875 615.519531 453.882813 615.519531 418.96875 L 615.519531 0.00390625 L 396.984375 0.00390625 "/>
</g>
<path style=" stroke:none;fill-rule:nonzero;fill:rgb(39.199829%,42.399597%,43.899536%);fill-opacity:1;" d="M 766.8125 0.00390625 L 766.8125 254.742188 L 928.449219 254.742188 L 928.449219 219.828125 L 805.605469 219.828125 L 805.605469 0.00390625 L 766.8125 0.00390625 "/>
<path style=" stroke:none;fill-rule:nonzero;fill:rgb(39.199829%,42.399597%,43.899536%);fill-opacity:1;" d="M 1053.878906 113.796875 C 1047.410156 107.328125 1038.359375 103.449219 1026.71875 103.449219 C 1016.378906 103.449219 1007.328125 107.328125 1000.859375 113.796875 C 989.226563 125.433594 987.933594 143.535156 987.933594 162.933594 C 987.933594 182.328125 989.226563 201.726563 1000.859375 212.070313 C 1007.328125 218.535156 1016.378906 222.414063 1026.71875 222.414063 C 1037.070313 222.414063 1047.410156 218.535156 1053.878906 212.070313 C 1065.519531 200.433594 1066.808594 182.328125 1066.808594 162.933594 C 1066.808594 144.828125 1065.519531 125.433594 1053.878906 113.796875 M 1082.328125 235.347656 C 1070.691406 246.984375 1052.589844 257.328125 1028.019531 257.328125 C 1003.449219 257.328125 985.34375 248.277344 973.707031 235.347656 C 956.898438 217.242188 951.726563 193.96875 951.726563 164.226563 C 951.726563 133.191406 955.605469 111.210938 973.707031 93.105469 C 985.34375 81.46875 1003.449219 71.121094 1028.019531 71.121094 C 1052.589844 71.121094 1070.691406 80.175781 1082.328125 93.105469 C 1099.140625 111.210938 1104.308594 134.484375 1104.308594 164.226563 C 1103.019531 195.261719 1099.140625 217.242188 1082.328125 235.347656 "/>
<path style=" stroke:none;fill-rule:nonzero;fill:rgb(39.199829%,42.399597%,43.899536%);fill-opacity:1;" d="M 1254.308594 254.742188 L 1254.308594 236.640625 C 1241.378906 250.863281 1224.570313 257.328125 1206.46875 257.328125 C 1188.359375 257.328125 1172.839844 250.863281 1161.210938 240.519531 C 1146.980469 226.296875 1143.101563 209.484375 1143.101563 188.796875 L 1143.101563 73.710938 L 1179.308594 73.710938 L 1179.308594 183.621094 C 1179.308594 212.070313 1194.828125 223.710938 1215.519531 223.710938 C 1236.210938 223.710938 1253.019531 210.777344 1253.019531 183.621094 L 1253.019531 73.710938 L 1289.21875 73.710938 L 1289.21875 254.742188 L 1254.308594 254.742188 "/>
<path style=" stroke:none;fill-rule:nonzero;fill:rgb(39.199829%,42.399597%,43.899536%);fill-opacity:1;" d="M 1405.601563 103.449219 C 1373.28125 103.449219 1368.101563 131.898438 1368.101563 160.347656 C 1368.101563 188.796875 1371.980469 217.242188 1405.601563 217.242188 C 1437.929688 217.242188 1441.808594 188.796875 1441.808594 160.347656 C 1441.808594 131.898438 1437.929688 103.449219 1405.601563 103.449219 M 1400.429688 329.742188 C 1373.28125 329.742188 1355.171875 323.277344 1335.78125 305.175781 L 1359.050781 281.898438 C 1370.691406 292.242188 1381.039063 297.414063 1397.839844 297.414063 C 1428.878906 297.414063 1440.519531 275.433594 1440.519531 250.863281 L 1440.519531 227.589844 C 1427.589844 243.105469 1412.070313 248.277344 1393.96875 248.277344 C 1375.859375 248.277344 1360.339844 241.8125 1351.289063 232.761719 C 1333.191406 214.65625 1330.601563 190.089844 1330.601563 159.054688 C 1330.601563 128.019531 1333.191406 103.449219 1351.289063 85.347656 C 1361.640625 75.003906 1377.160156 69.828125 1395.261719 69.828125 C 1414.660156 69.828125 1428.878906 75.003906 1443.101563 91.8125 L 1443.101563 73.710938 L 1478.019531 73.710938 L 1478.019531 253.449219 C 1478.019531 298.710938 1449.570313 329.742188 1400.429688 329.742188 "/>
<path style=" stroke:none;fill-rule:nonzero;fill:rgb(39.199829%,42.399597%,43.899536%);fill-opacity:1;" d="M 1638.359375 254.742188 L 1638.359375 144.828125 C 1638.359375 116.382813 1622.839844 104.742188 1602.160156 104.742188 C 1581.46875 104.742188 1564.660156 117.675781 1564.660156 144.828125 L 1564.660156 254.742188 L 1528.449219 254.742188 L 1528.449219 0.00390625 L 1564.660156 0.00390625 L 1564.660156 91.8125 C 1576.289063 78.882813 1593.101563 71.121094 1612.5 71.121094 C 1630.601563 71.121094 1646.121094 77.589844 1657.761719 87.933594 C 1671.980469 102.15625 1675.859375 118.96875 1675.859375 139.65625 L 1675.859375 256.035156 L 1638.359375 256.035156 L 1638.359375 254.742188 "/>
<path style=" stroke:none;fill-rule:nonzero;fill:rgb(39.199829%,42.399597%,43.899536%);fill-opacity:1;" d="M 1797.410156 103.449219 C 1763.789063 103.449219 1759.910156 131.898438 1759.910156 162.933594 C 1759.910156 195.261719 1765.089844 223.710938 1797.410156 223.710938 C 1829.738281 223.710938 1834.910156 195.261719 1834.910156 162.933594 C 1836.210938 131.898438 1831.039063 103.449219 1797.410156 103.449219 M 1851.71875 240.519531 C 1841.378906 250.863281 1825.859375 256.035156 1807.761719 256.035156 C 1788.359375 256.035156 1772.839844 250.863281 1759.910156 234.054688 L 1759.910156 254.742188 L 1723.710938 254.742188 L 1723.710938 0.00390625 L 1759.910156 0.00390625 L 1759.910156 91.8125 C 1772.839844 76.296875 1788.359375 71.121094 1807.761719 71.121094 C 1825.859375 71.121094 1841.378906 77.589844 1851.71875 86.640625 C 1869.828125 104.742188 1872.410156 133.191406 1872.410156 162.933594 C 1872.410156 193.96875 1869.828125 222.414063 1851.71875 240.519531 "/>
<path style=" stroke:none;fill-rule:nonzero;fill:rgb(39.199829%,42.399597%,43.899536%);fill-opacity:1;" d="M 2006.898438 113.796875 C 2000.429688 107.328125 1991.378906 103.449219 1979.738281 103.449219 C 1969.398438 103.449219 1960.339844 107.328125 1953.878906 113.796875 C 1942.238281 125.433594 1940.949219 143.535156 1940.949219 162.933594 C 1940.949219 182.328125 1942.238281 201.726563 1953.878906 212.070313 C 1960.339844 218.535156 1969.398438 222.414063 1979.738281 222.414063 C 1990.089844 222.414063 2000.429688 218.535156 2006.898438 212.070313 C 2018.53125 200.433594 2019.828125 182.328125 2019.828125 162.933594 C 2019.828125 144.828125 2018.539063 125.433594 2006.898438 113.796875 M 2035.339844 235.347656 C 2023.710938 246.984375 2005.601563 257.328125 1981.03125 257.328125 C 1956.46875 257.328125 1938.359375 248.277344 1926.71875 235.347656 C 1909.910156 217.242188 1904.738281 193.96875 1904.738281 164.226563 C 1904.738281 133.191406 1908.621094 111.210938 1926.71875 93.105469 C 1938.359375 81.46875 1956.46875 71.121094 1981.03125 71.121094 C 2005.601563 71.121094 2023.710938 80.175781 2035.339844 93.105469 C 2052.160156 111.210938 2057.328125 134.484375 2057.328125 164.226563 C 2056.03125 195.261719 2052.160156 217.242188 2035.339844 235.347656 "/>
<path style=" stroke:none;fill-rule:nonzero;fill:rgb(39.199829%,42.399597%,43.899536%);fill-opacity:1;" d="M 2196.980469 116.382813 C 2189.21875 108.621094 2182.761719 104.742188 2169.828125 104.742188 C 2150.429688 104.742188 2133.621094 120.261719 2133.621094 146.121094 L 2133.621094 254.742188 L 2097.410156 254.742188 L 2097.410156 73.710938 L 2133.621094 73.710938 L 2133.621094 93.105469 C 2142.671875 80.175781 2162.070313 71.121094 2181.46875 71.121094 C 2199.570313 71.121094 2212.5 76.296875 2224.140625 87.933594 L 2196.980469 116.382813 "/>
<path style=" stroke:none;fill-rule:nonzero;fill:rgb(39.199829%,42.399597%,43.899536%);fill-opacity:1;" d="M 2340.519531 113.796875 C 2334.050781 107.328125 2325 103.449219 2313.359375 103.449219 C 2303.019531 103.449219 2293.96875 107.328125 2287.5 113.796875 C 2275.859375 125.433594 2274.570313 143.535156 2274.570313 162.933594 C 2274.570313 182.328125 2275.859375 201.726563 2287.5 212.070313 C 2293.96875 218.535156 2303.019531 222.414063 2313.359375 222.414063 C 2323.710938 222.414063 2332.761719 218.535156 2340.519531 212.070313 C 2352.160156 200.433594 2353.449219 182.328125 2353.449219 162.933594 C 2353.449219 144.828125 2352.160156 125.433594 2340.519531 113.796875 M 2367.671875 235.347656 C 2356.039063 246.984375 2337.929688 257.328125 2313.359375 257.328125 C 2288.789063 257.328125 2270.691406 248.277344 2259.050781 235.347656 C 2242.238281 217.242188 2237.070313 193.96875 2237.070313 164.226563 C 2237.070313 133.191406 2240.949219 111.210938 2259.050781 93.105469 C 2270.691406 81.46875 2288.789063 71.121094 2313.359375 71.121094 C 2337.929688 71.121094 2356.039063 80.175781 2367.671875 93.105469 C 2384.480469 111.210938 2389.660156 134.484375 2389.660156 164.226563 C 2389.660156 195.261719 2385.78125 217.242188 2367.671875 235.347656 "/>
<path style=" stroke:none;fill-rule:nonzero;fill:rgb(39.199829%,42.399597%,43.899536%);fill-opacity:1;" d="M 2540.949219 254.742188 L 2540.949219 236.640625 C 2528.019531 250.863281 2511.210938 257.328125 2493.101563 257.328125 C 2475 257.328125 2459.480469 250.863281 2447.839844 240.519531 C 2433.621094 226.296875 2429.738281 209.484375 2429.738281 188.796875 L 2429.738281 73.710938 L 2465.949219 73.710938 L 2465.949219 183.621094 C 2465.949219 212.070313 2481.46875 223.710938 2502.160156 223.710938 C 2522.851563 223.710938 2539.660156 210.777344 2539.660156 183.621094 L 2539.660156 73.710938 L 2575.859375 73.710938 L 2575.859375 254.742188 L 2540.949219 254.742188 "/>
<path style=" stroke:none;fill-rule:nonzero;fill:rgb(39.199829%,42.399597%,43.899536%);fill-opacity:1;" d="M 2690.949219 103.449219 C 2658.621094 103.449219 2653.449219 131.898438 2653.449219 160.347656 C 2653.449219 188.796875 2657.328125 217.242188 2690.949219 217.242188 C 2723.28125 217.242188 2727.160156 188.796875 2727.160156 160.347656 C 2728.449219 131.898438 2724.570313 103.449219 2690.949219 103.449219 M 2687.070313 329.742188 C 2659.910156 329.742188 2641.808594 323.277344 2623.710938 305.175781 L 2646.980469 281.898438 C 2658.621094 292.242188 2668.96875 297.414063 2685.78125 297.414063 C 2716.808594 297.414063 2728.449219 275.433594 2728.449219 250.863281 L 2728.449219 227.589844 C 2715.519531 243.105469 2700 248.277344 2681.898438 248.277344 C 2663.789063 248.277344 2648.28125 241.8125 2639.21875 232.761719 C 2621.121094 214.65625 2618.53125 190.089844 2618.53125 159.054688 C 2618.53125 128.019531 2621.121094 103.449219 2639.21875 85.347656 C 2649.570313 75.003906 2665.089844 69.828125 2683.191406 69.828125 C 2702.589844 69.828125 2716.808594 75.003906 2731.03125 91.8125 L 2731.03125 73.710938 L 2765.949219 73.710938 L 2765.949219 253.449219 C 2764.660156 298.710938 2734.910156 329.742188 2687.070313 329.742188 "/>
<g clip-path="url(#clip2)" clip-rule="nonzero">
<path style=" stroke:none;fill-rule:nonzero;fill:rgb(39.199829%,42.399597%,43.899536%);fill-opacity:1;" d="M 2925 254.742188 L 2925 144.828125 C 2925 116.382813 2909.480469 104.742188 2888.789063 104.742188 C 2868.101563 104.742188 2851.289063 117.675781 2851.289063 144.828125 L 2851.289063 254.742188 L 2815.089844 254.742188 L 2815.089844 0.00390625 L 2851.289063 0.00390625 L 2851.289063 91.8125 C 2862.929688 78.882813 2879.738281 71.121094 2899.140625 71.121094 C 2917.238281 71.121094 2932.761719 77.589844 2944.398438 87.933594 C 2958.621094 102.15625 2962.5 118.96875 2962.5 139.65625 L 2962.5 256.035156 L 2925 256.035156 L 2925 254.742188 "/>
</g>
<path style=" stroke:none;fill-rule:nonzero;fill:rgb(39.199829%,42.399597%,43.899536%);fill-opacity:1;" d="M 858.621094 614.226563 C 806.898438 614.226563 766.8125 579.3125 766.8125 526.296875 L 766.8125 358.191406 L 805.605469 358.191406 L 805.605469 525.003906 C 805.605469 558.621094 826.292969 580.605469 858.621094 580.605469 C 890.949219 580.605469 911.636719 559.914063 911.636719 525.003906 L 911.636719 358.191406 L 950.433594 358.191406 L 950.433594 526.296875 C 950.433594 579.3125 910.34375 614.226563 858.621094 614.226563 "/>
<path style=" stroke:none;fill-rule:nonzero;fill:rgb(39.199829%,42.399597%,43.899536%);fill-opacity:1;" d="M 1110.78125 612.933594 L 1110.78125 503.019531 C 1110.78125 474.570313 1095.261719 462.933594 1074.570313 462.933594 C 1053.878906 462.933594 1037.070313 475.863281 1037.070313 503.019531 L 1037.070313 612.933594 L 1000.859375 612.933594 L 1000.859375 431.898438 L 1037.070313 431.898438 L 1037.070313 450.003906 C 1050 437.070313 1066.808594 429.3125 1084.910156 429.3125 C 1103.019531 429.3125 1118.53125 435.777344 1130.171875 446.121094 C 1144.398438 460.347656 1148.28125 477.15625 1148.28125 497.847656 L 1148.28125 614.226563 L 1110.78125 614.226563 L 1110.78125 612.933594 "/>
<path style=" stroke:none;fill-rule:nonzero;fill:rgb(39.199829%,42.399597%,43.899536%);fill-opacity:1;" d="M 1196.121094 430.605469 L 1232.328125 430.605469 L 1232.328125 611.640625 L 1196.121094 611.640625 Z M 1194.828125 356.898438 L 1233.621094 356.898438 L 1233.621094 395.691406 L 1194.828125 395.691406 L 1194.828125 356.898438 "/>
<path style=" stroke:none;fill-rule:nonzero;fill:rgb(39.199829%,42.399597%,43.899536%);fill-opacity:1;" d="M 1352.589844 612.933594 L 1322.839844 612.933594 L 1256.898438 430.605469 L 1294.398438 430.605469 L 1338.359375 558.621094 L 1379.738281 430.605469 L 1418.53125 430.605469 L 1352.589844 612.933594 "/>
<path style=" stroke:none;fill-rule:nonzero;fill:rgb(39.199829%,42.399597%,43.899536%);fill-opacity:1;" d="M 1546.550781 482.328125 C 1540.089844 468.105469 1528.449219 459.054688 1510.339844 459.054688 C 1492.238281 459.054688 1480.601563 468.105469 1474.140625 482.328125 C 1470.261719 490.089844 1470.261719 495.261719 1468.96875 506.898438 L 1550.429688 506.898438 C 1550.429688 495.261719 1550.429688 490.089844 1546.550781 482.328125 M 1470.261719 532.761719 C 1470.261719 563.796875 1485.78125 583.191406 1516.808594 583.191406 C 1537.5 583.191406 1547.839844 578.019531 1560.78125 565.089844 L 1584.050781 587.070313 C 1565.949219 605.175781 1547.839844 615.519531 1515.519531 615.519531 C 1470.261719 615.519531 1434.050781 590.949219 1434.050781 522.414063 C 1434.050781 462.933594 1465.089844 429.3125 1510.339844 429.3125 C 1559.480469 429.3125 1587.929688 464.226563 1587.929688 517.242188 L 1587.929688 532.761719 L 1470.261719 532.761719 "/>
<path style=" stroke:none;fill-rule:nonzero;fill:rgb(39.199829%,42.399597%,43.899536%);fill-opacity:1;" d="M 1727.589844 473.277344 C 1719.828125 465.519531 1713.359375 461.640625 1700.429688 461.640625 C 1681.039063 461.640625 1664.21875 477.15625 1664.21875 503.019531 L 1664.21875 612.933594 L 1628.019531 612.933594 L 1628.019531 431.898438 L 1664.21875 431.898438 L 1664.21875 451.296875 C 1673.28125 438.363281 1692.671875 429.3125 1712.070313 429.3125 C 1730.171875 429.3125 1743.101563 434.484375 1754.738281 446.121094 L 1727.589844 473.277344 "/>
<path style=" stroke:none;fill-rule:nonzero;fill:rgb(39.199829%,42.399597%,43.899536%);fill-opacity:1;" d="M 1836.210938 614.226563 C 1806.46875 614.226563 1781.898438 609.054688 1759.910156 588.363281 L 1784.480469 563.796875 C 1798.710938 579.3125 1819.398438 583.191406 1836.210938 583.191406 C 1858.191406 583.191406 1876.289063 575.433594 1876.289063 558.621094 C 1876.289063 545.691406 1869.828125 539.226563 1851.71875 536.640625 L 1823.28125 534.054688 C 1788.359375 531.46875 1770.261719 515.949219 1770.261719 483.621094 C 1770.261719 447.414063 1800 428.019531 1838.789063 428.019531 C 1865.949219 428.019531 1889.21875 433.191406 1906.039063 448.710938 L 1882.761719 471.984375 C 1871.121094 462.933594 1855.601563 459.054688 1837.5 459.054688 C 1815.519531 459.054688 1805.171875 468.105469 1805.171875 482.328125 C 1805.171875 495.261719 1812.929688 501.726563 1829.738281 503.019531 L 1855.601563 505.605469 C 1893.101563 509.484375 1912.5 525.003906 1912.5 557.328125 C 1911.210938 594.828125 1878.878906 614.226563 1836.210938 614.226563 "/>
<path style=" stroke:none;fill-rule:nonzero;fill:rgb(39.199829%,42.399597%,43.899536%);fill-opacity:1;" d="M 1947.410156 430.605469 L 1983.621094 430.605469 L 1983.621094 611.640625 L 1947.410156 611.640625 Z M 1946.121094 356.898438 L 1984.910156 356.898438 L 1984.910156 395.691406 L 1946.121094 395.691406 L 1946.121094 356.898438 "/>
<path style=" stroke:none;fill-rule:nonzero;fill:rgb(39.199829%,42.399597%,43.899536%);fill-opacity:1;" d="M 2088.359375 612.933594 C 2054.738281 612.933594 2039.21875 588.363281 2039.21875 562.503906 L 2039.21875 459.054688 L 2017.238281 459.054688 L 2017.238281 430.605469 L 2037.929688 430.605469 L 2037.929688 378.882813 L 2074.140625 378.882813 L 2074.140625 430.605469 L 2109.050781 430.605469 L 2109.050781 459.054688 L 2074.140625 459.054688 L 2074.140625 559.914063 C 2074.140625 572.847656 2080.601563 580.605469 2094.828125 580.605469 L 2110.339844 580.605469 L 2110.339844 611.640625 L 2088.359375 611.640625 L 2088.359375 612.933594 "/>
<path style=" stroke:none;fill-rule:nonzero;fill:rgb(39.199829%,42.399597%,43.899536%);fill-opacity:1;" d="M 2204.738281 649.140625 C 2200.859375 659.484375 2196.980469 665.949219 2191.808594 671.121094 C 2181.46875 681.46875 2168.53125 684.054688 2154.308594 684.054688 L 2140.089844 684.054688 L 2140.089844 651.726563 L 2149.140625 651.726563 C 2164.660156 651.726563 2169.828125 646.554688 2175 632.328125 L 2185.339844 603.882813 L 2121.980469 430.605469 L 2160.78125 430.605469 L 2203.449219 558.621094 L 2246.121094 430.605469 L 2284.910156 430.605469 L 2204.738281 649.140625 "/>
</g>
</svg>
